<svg width="29" height="24" fill="none" xmlns="http://www.w3.org/2000/svg"><path d="M6.645 8c0-.663.318-1.299.885-1.768.566-.469 1.335-.732 2.136-.732.801 0 1.57.263 2.136.732.567.47.885 1.105.885 1.768s-.318 1.299-.885 1.768c-.566.469-1.335.732-2.136.732-.801 0-1.57-.263-2.136-.732-.567-.47-.885-1.105-.885-1.768Zm3.021-4c-1.282 0-2.511.421-3.418 1.172-.906.75-1.415 1.767-1.415 2.828 0 1.06.509 2.078 1.415 2.828.907.75 2.136 1.172 3.418 1.172s2.511-.421 3.418-1.172c.906-.75 1.415-1.767 1.415-2.828 0-1.06-.509-2.078-1.415-2.828C12.177 4.422 10.948 4 9.666 4Zm9.063 5c0-.398.19-.78.53-1.06.34-.282.801-.44 1.282-.44.48 0 .942.158 1.282.44.34.28.53.662.53 1.06s-.19.78-.53 1.06c-.34.282-.801.44-1.282.44a2.02 2.02 0 0 1-1.282-.44c-.34-.28-.53-.662-.53-1.06Zm1.812-3c-.961 0-1.883.316-2.563.879-.68.562-1.062 1.325-1.062 2.121s.382 1.559 1.062 2.121c.68.563 1.602.879 2.563.879.961 0 1.883-.316 2.563-.879.68-.562 1.062-1.325 1.062-2.121s-.382-1.559-1.062-2.121C22.424 6.316 21.502 6 20.541 6Zm-3.325 13.038c.85.285 1.938.462 3.326.462 2.758 0 4.333-.697 5.192-1.558.417-.418.629-.84.737-1.163.063-.187.1-.38.113-.573v-.027c0-.286-.068-.57-.2-.834a2.205 2.205 0 0 0-.571-.707 2.724 2.724 0 0 0-.854-.472A3.115 3.115 0 0 0 23.95 14h-6.817c-.034 0-.067 0-.1.002.477.41.822.925.986 1.498h5.93c.45 0 .815.299.821.669a1.05 1.05 0 0 1-.048.212 1.532 1.532 0 0 1-.387.605C23.914 17.412 22.92 18 20.542 18c-1.184 0-2.025-.146-2.622-.345-.13.4-.345.883-.704 1.383ZM5.135 14c-.721 0-1.413.237-1.923.659-.51.422-.796.994-.796 1.591v.278c.001.07.007.139.017.208.1.744.423 1.456.94 2.07C4.361 19.974 6.249 21 9.666 21c3.417 0 5.305-1.025 6.293-2.195a4.05 4.05 0 0 0 .94-2.07c.009-.069.014-.138.017-.207v-.278c0-.597-.286-1.169-.796-1.591-.51-.422-1.202-.659-1.923-.659H5.135Zm-.906 2.507v-.257c0-.199.095-.39.265-.53.17-.141.4-.22.64-.22h9.063c.24 0 .471.079.641.22.17.14.266.331.266.53v.257l-.009.08a2.7 2.7 0 0 1-.621 1.358c-.596.705-1.881 1.555-4.808 1.555-2.927 0-4.212-.85-4.81-1.555a2.699 2.699 0 0 1-.627-1.438Z" fill="#787878"/></svg>