<svg width="30" height="24" fill="none" xmlns="http://www.w3.org/2000/svg"><path d="M6.875 8c0-.663.33-1.299.915-1.768C8.376 5.763 9.171 5.5 10 5.5s1.624.263 2.21.732c.586.47.915 1.105.915 1.768s-.33 1.299-.915 1.768c-.586.469-1.381.732-2.21.732s-1.624-.263-2.21-.732c-.586-.47-.915-1.105-.915-1.768ZM10 4c-1.326 0-2.598.421-3.536 1.172C5.527 5.922 5 6.939 5 8c0 1.06.527 2.078 1.464 2.828C7.402 11.578 8.674 12 10 12s2.598-.421 3.536-1.172C14.473 10.078 15 9.061 15 8c0-1.06-.527-2.078-1.464-2.828C12.598 4.422 11.326 4 10 4Zm9.375 5c0-.398.198-.78.55-1.06.35-.282.828-.44 1.325-.44s.974.158 1.326.44c.351.28.549.662.549 1.06s-.198.78-.55 1.06c-.35.282-.828.44-1.325.44s-.974-.158-1.326-.44c-.351-.28-.549-.662-.549-1.06Zm1.875-3c-.995 0-1.948.316-2.652.879C17.895 7.44 17.5 8.204 17.5 9s.395 1.559 1.098 2.121c.704.563 1.657.879 2.652.879.995 0 1.948-.316 2.652-.879C24.605 10.56 25 9.796 25 9s-.395-1.559-1.098-2.121C23.198 6.316 22.245 6 21.25 6Zm-3.44 13.038c.879.285 2.005.462 3.441.462 2.853 0 4.483-.697 5.371-1.558.432-.418.65-.84.763-1.163a2.23 2.23 0 0 0 .116-.573v-.027c0-.286-.07-.57-.207-.834a2.22 2.22 0 0 0-.59-.707 2.847 2.847 0 0 0-.884-.472A3.323 3.323 0 0 0 24.777 14h-7.052c-.035 0-.069 0-.103.002.493.41.85.925 1.02 1.498h6.136c.465 0 .842.299.848.669a1.022 1.022 0 0 1-.05.212 1.527 1.527 0 0 1-.4.605C24.74 17.412 23.711 18 21.251 18c-1.225 0-2.095-.146-2.712-.345-.135.4-.358.883-.729 1.383ZM5.313 14c-.746 0-1.462.237-1.99.659-.527.422-.823.994-.823 1.591v.278c.001.07.007.139.018.208.103.744.437 1.456.972 2.07C4.512 19.974 6.465 21 10 21c3.535 0 5.488-1.025 6.51-2.195.535-.614.87-1.326.973-2.07.008-.069.014-.138.017-.207v-.278c0-.597-.296-1.169-.824-1.591-.527-.422-1.243-.659-1.988-.659H5.312Zm-.938 2.507v-.257c0-.199.099-.39.275-.53.175-.141.414-.22.662-.22h9.375c.25 0 .488.079.663.22.176.14.275.331.275.53v.257l-.009.08a2.66 2.66 0 0 1-.642 1.358C14.357 18.65 13.027 19.5 10 19.5s-4.357-.85-4.975-1.555a2.658 2.658 0 0 1-.65-1.438Z" fill="#787878"/></svg>